<svg width="180" height="28" viewBox="0 0 180 28" fill="none" xmlns="http://www.w3.org/2000/svg">
<path d="M12.42 20.324C10.116 20.324 8.1 19.892 6.372 19.028C4.668 18.14 3.336 16.94 2.376 15.428C1.44 13.892 0.972 12.152 0.972 10.208C0.972 8.264 1.428 6.536 2.34 5.024C3.276 3.488 4.56 2.3 6.192 1.46C7.824 0.595999 9.66 0.164 11.7 0.164C13.62 0.164 15.372 0.56 16.956 1.352C18.54 2.12 19.8 3.26 20.736 4.772C21.672 6.284 22.14 8.12 22.14 10.28C22.14 10.52 22.128 10.796 22.104 11.108C22.08 11.42 22.056 11.708 22.032 11.972H6.588V8.372H18.396L15.804 9.38C15.828 8.492 15.66 7.724 15.3 7.076C14.964 6.428 14.484 5.924 13.86 5.564C13.26 5.204 12.552 5.024 11.736 5.024C10.92 5.024 10.2 5.204 9.576 5.564C8.976 5.924 8.508 6.44 8.172 7.112C7.836 7.76 7.668 8.528 7.668 9.416V10.46C7.668 11.42 7.86 12.248 8.244 12.944C8.652 13.64 9.228 14.18 9.972 14.564C10.716 14.924 11.604 15.104 12.636 15.104C13.596 15.104 14.412 14.972 15.084 14.708C15.78 14.42 16.464 13.988 17.136 13.412L20.736 17.156C19.8 18.188 18.648 18.98 17.28 19.532C15.912 20.06 14.292 20.324 12.42 20.324ZM50.7097 0.164C52.2217 0.164 53.5657 0.476 54.7417 1.1C55.9417 1.7 56.8777 2.636 57.5497 3.908C58.2457 5.18 58.5937 6.824 58.5937 8.84V20H51.7537V9.956C51.7537 8.564 51.4897 7.556 50.9617 6.932C50.4337 6.284 49.7137 5.96 48.8017 5.96C48.1537 5.96 47.5657 6.116 47.0377 6.428C46.5097 6.74 46.1017 7.22 45.8137 7.868C45.5257 8.492 45.3817 9.308 45.3817 10.316V20H38.5417V9.956C38.5417 8.564 38.2777 7.556 37.7497 6.932C37.2457 6.284 36.5257 5.96 35.5897 5.96C34.9177 5.96 34.3177 6.116 33.7897 6.428C33.2857 6.74 32.8777 7.22 32.5657 7.868C32.2777 8.492 32.1337 9.308 32.1337 10.316V20H25.2937V0.487998H31.8097V5.924L30.5137 4.376C31.2337 2.984 32.2177 1.94 33.4657 1.244C34.7137 0.524 36.1057 0.164 37.6417 0.164C39.3937 0.164 40.9297 0.62 42.2497 1.532C43.5937 2.42 44.4937 3.812 44.9497 5.708L42.7177 5.24C43.4137 3.656 44.4577 2.42 45.8497 1.532C47.2657 0.62 48.8857 0.164 50.7097 0.164ZM88.3268 0.164C89.8388 0.164 91.1828 0.476 92.3588 1.1C93.5588 1.7 94.4948 2.636 95.1668 3.908C95.8628 5.18 96.2108 6.824 96.2108 8.84V20H89.3708V9.956C89.3708 8.564 89.1068 7.556 88.5788 6.932C88.0508 6.284 87.3308 5.96 86.4188 5.96C85.7708 5.96 85.1828 6.116 84.6548 6.428C84.1268 6.74 83.7188 7.22 83.4308 7.868C83.1428 8.492 82.9988 9.308 82.9988 10.316V20H76.1588V9.956C76.1588 8.564 75.8948 7.556 75.3668 6.932C74.8628 6.284 74.1428 5.96 73.2068 5.96C72.5348 5.96 71.9348 6.116 71.4068 6.428C70.9028 6.74 70.4948 7.22 70.1828 7.868C69.8948 8.492 69.7508 9.308 69.7508 10.316V20H62.9108V0.487998H69.4268V5.924L68.1308 4.376C68.8508 2.984 69.8348 1.94 71.0828 1.244C72.3308 0.524 73.7228 0.164 75.2588 0.164C77.0108 0.164 78.5468 0.62 79.8668 1.532C81.2108 2.42 82.1108 3.812 82.5668 5.708L80.3348 5.24C81.0308 3.656 82.0748 2.42 83.4668 1.532C84.8828 0.62 86.5028 0.164 88.3268 0.164ZM110.998 20.324C108.694 20.324 106.678 19.892 104.95 19.028C103.246 18.14 101.914 16.94 100.954 15.428C100.018 13.892 99.5501 12.152 99.5501 10.208C99.5501 8.264 100.006 6.536 100.918 5.024C101.854 3.488 103.138 2.3 104.77 1.46C106.402 0.595999 108.238 0.164 110.278 0.164C112.198 0.164 113.95 0.56 115.534 1.352C117.118 2.12 118.378 3.26 119.314 4.772C120.25 6.284 120.718 8.12 120.718 10.28C120.718 10.52 120.706 10.796 120.682 11.108C120.658 11.42 120.634 11.708 120.61 11.972H105.166V8.372H116.974L114.382 9.38C114.406 8.492 114.238 7.724 113.878 7.076C113.542 6.428 113.062 5.924 112.438 5.564C111.838 5.204 111.13 5.024 110.314 5.024C109.498 5.024 108.778 5.204 108.154 5.564C107.554 5.924 107.086 6.44 106.75 7.112C106.414 7.76 106.246 8.528 106.246 9.416V10.46C106.246 11.42 106.438 12.248 106.822 12.944C107.23 13.64 107.806 14.18 108.55 14.564C109.294 14.924 110.182 15.104 111.214 15.104C112.174 15.104 112.99 14.972 113.662 14.708C114.358 14.42 115.042 13.988 115.714 13.412L119.314 17.156C118.378 18.188 117.226 18.98 115.858 19.532C114.49 20.06 112.87 20.324 110.998 20.324ZM123.872 20V0.487998H130.388V6.176L129.416 4.556C129.992 3.092 130.928 2 132.224 1.28C133.52 0.536 135.092 0.164 136.94 0.164V6.32C136.628 6.272 136.352 6.248 136.112 6.248C135.896 6.224 135.656 6.212 135.392 6.212C134 6.212 132.872 6.596 132.008 7.364C131.144 8.108 130.712 9.332 130.712 11.036V20H123.872ZM143.708 27.308C142.676 27.308 141.632 27.14 140.576 26.804C139.544 26.492 138.704 26.072 138.056 25.544L140.432 20.756C140.84 21.116 141.308 21.392 141.836 21.584C142.388 21.8 142.928 21.908 143.456 21.908C144.2 21.908 144.788 21.74 145.22 21.404C145.652 21.068 146.024 20.54 146.336 19.82L147.236 17.552L147.776 16.868L154.4 0.487998H160.916L152.492 20.792C151.82 22.472 151.04 23.78 150.152 24.716C149.288 25.676 148.316 26.348 147.236 26.732C146.18 27.116 145.004 27.308 143.708 27.308ZM146.372 20.828L137.768 0.487998H144.788L151.124 16.256L146.372 20.828ZM169.46 20.324C167.804 20.324 166.184 20.132 164.6 19.748C163.04 19.364 161.78 18.884 160.82 18.308L162.872 13.628C163.784 14.18 164.852 14.624 166.076 14.96C167.3 15.272 168.5 15.428 169.676 15.428C170.828 15.428 171.62 15.308 172.052 15.068C172.508 14.828 172.736 14.504 172.736 14.096C172.736 13.712 172.52 13.436 172.088 13.268C171.68 13.076 171.128 12.932 170.432 12.836C169.76 12.74 169.016 12.632 168.2 12.512C167.384 12.392 166.556 12.236 165.716 12.044C164.9 11.828 164.144 11.516 163.448 11.108C162.776 10.676 162.236 10.1 161.828 9.38C161.42 8.66 161.216 7.748 161.216 6.644C161.216 5.396 161.576 4.292 162.296 3.332C163.04 2.348 164.12 1.58 165.536 1.028C166.952 0.452 168.68 0.164 170.72 0.164C172.088 0.164 173.468 0.308 174.86 0.595999C176.276 0.86 177.464 1.268 178.424 1.82L176.372 6.464C175.412 5.912 174.452 5.54 173.492 5.348C172.532 5.132 171.62 5.024 170.756 5.024C169.604 5.024 168.788 5.156 168.308 5.42C167.852 5.684 167.624 6.008 167.624 6.392C167.624 6.776 167.828 7.076 168.236 7.292C168.644 7.484 169.184 7.64 169.856 7.76C170.552 7.856 171.308 7.964 172.124 8.084C172.94 8.18 173.756 8.336 174.572 8.552C175.412 8.768 176.168 9.092 176.84 9.524C177.536 9.932 178.088 10.496 178.496 11.216C178.904 11.912 179.108 12.812 179.108 13.916C179.108 15.116 178.736 16.196 177.992 17.156C177.272 18.116 176.192 18.884 174.752 19.46C173.336 20.036 171.572 20.324 169.46 20.324Z" fill="#F1E9DE"/>
</svg>
