<?xml version="1.0" encoding="UTF-8"?>
<svg id="Layer_1" data-name="Layer 1" xmlns="http://www.w3.org/2000/svg" viewBox="0 0 187.92 188.52">
  <defs>
    <style>
      .cls-1 {
        fill: #8a5e2d;
      }
    </style>
  </defs>
  <polygon class="cls-1" points="88.55 .03 88.55 188.52 81.32 188.08 80.31 184.99 80.3 1.65 88.55 .03"/>
  <path class="cls-1" d="M72.16,2.08v185.42c-4.14-.78-8.84-1.17-8.25-6.6V7.66c-.19-4.11,5.01-4.8,8.25-5.58Z"/>
  <path class="cls-1" d="M40.41,17.45v154.68c-3.89-.52-6.53-3.77-8.26-8.64l.6-140.9,7.66-5.14Z"/>
  <path class="cls-1" d="M55.77,8.23v173.12c-3.95.12-7.74-2.26-7.23-6.6V13.8c-.24-3.53,4.28-5,7.23-5.58Z"/>
  <path class="cls-1" d="M24.02,31.79v126c-5.79-4.38-1.73-.63-2.34-1.31-2.51-2.81-5.97-6.45-5.92-10.4l.02-103.57,2.7-5.49,5.54-5.22Z"/>
  <polygon class="cls-1" points="187.92 80.96 187.92 89.16 98.8 89.16 98.96 82.66 100.33 80.96 187.92 80.96"/>
  <path class="cls-1" d="M185.87,72.77h-87.07l.14-6.52,2.42-1.68,79.96-.06c4.24-.25,4.45,4.94,4.55,8.25Z"/>
  <polygon class="cls-1" points="180.75 56.37 98.8 56.37 98.94 49.86 101.36 48.18 177.25 49.12 180.75 56.37"/>
  <path class="cls-1" d="M171.53,39.98h-72.73l.14-6.52,2.42-1.68c19.37,1.46,41.47-1.93,60.5-.06,5.59.55,6.82,3.99,9.67,8.26Z"/>
  <path class="cls-1" d="M7.63,131.16c-1.54-.25-1.98-1.88-2.56-3.08-6.81-14.03-6.61-51.64-.28-65.83.64-1.43,1.02-3.41,2.84-3.82v72.73Z"/>
  <path class="cls-1" d="M156.16,23.59h-57.37v-7.17h49.68c.53,0,7.06,5.82,7.68,7.17Z"/>
  <path class="cls-1" d="M100.33,8.23c-2-.62-2.27-6.53-.58-7.77l1.59-.46c8.5,1.43,19.13,1.72,26.87,5.93,1.21.66,1.71-.04,1.31,2.29h-29.2Z"/>
</svg>